<mxfile host="app.diagrams.net" modified="2021-07-03T02:20:40.298Z" agent="5.0 (Macintosh; Intel Mac OS X 10_14_5) AppleWebKit/537.36 (KHTML, like Gecko) Chrome/91.0.4472.114 Safari/537.36" etag="jwIEqm4ke97X-RGpOrkE" version="14.8.4" type="github" pages="2">
  <diagram id="XfQJulDVTzNGJzZzIoRj" name="Page-1">
    <mxGraphModel dx="946" dy="547" grid="1" gridSize="10" guides="1" tooltips="1" connect="1" arrows="1" fold="1" page="1" pageScale="1" pageWidth="1169" pageHeight="827" math="0" shadow="0">
      <root>
        <mxCell id="0" />
        <mxCell id="1" parent="0" />
        <mxCell id="C6EwnUrfaHdJioyyNy5x-5" value="" style="edgeStyle=orthogonalEdgeStyle;rounded=0;orthogonalLoop=1;jettySize=auto;html=1;curved=1;" edge="1" parent="1" source="C6EwnUrfaHdJioyyNy5x-1" target="C6EwnUrfaHdJioyyNy5x-4">
          <mxGeometry relative="1" as="geometry" />
        </mxCell>
        <mxCell id="C6EwnUrfaHdJioyyNy5x-1" value="&lt;font face=&quot;Times New Roman&quot; style=&quot;font-size: 22px&quot;&gt;nginx&lt;/font&gt;" style="rounded=0;whiteSpace=wrap;html=1;fillColor=#60a917;strokeColor=#2D7600;fontColor=#ffffff;" vertex="1" parent="1">
          <mxGeometry x="80" y="240" width="110" height="40" as="geometry" />
        </mxCell>
        <mxCell id="C6EwnUrfaHdJioyyNy5x-8" value="" style="edgeStyle=orthogonalEdgeStyle;curved=1;rounded=0;orthogonalLoop=1;jettySize=auto;html=1;entryX=0;entryY=0.5;entryDx=0;entryDy=0;" edge="1" parent="1" source="C6EwnUrfaHdJioyyNy5x-4" target="C6EwnUrfaHdJioyyNy5x-7">
          <mxGeometry relative="1" as="geometry" />
        </mxCell>
        <mxCell id="C6EwnUrfaHdJioyyNy5x-10" value="" style="edgeStyle=orthogonalEdgeStyle;curved=1;rounded=0;orthogonalLoop=1;jettySize=auto;html=1;" edge="1" parent="1" source="C6EwnUrfaHdJioyyNy5x-4" target="C6EwnUrfaHdJioyyNy5x-9">
          <mxGeometry relative="1" as="geometry" />
        </mxCell>
        <mxCell id="C6EwnUrfaHdJioyyNy5x-4" value="&lt;font style=&quot;font-size: 20px&quot;&gt;schedule&lt;/font&gt;" style="whiteSpace=wrap;html=1;rounded=0;fontColor=#ffffff;strokeColor=#2D7600;fillColor=#60a917;" vertex="1" parent="1">
          <mxGeometry x="240" y="90" width="120" height="50" as="geometry" />
        </mxCell>
        <mxCell id="C6EwnUrfaHdJioyyNy5x-16" value="" style="edgeStyle=orthogonalEdgeStyle;curved=1;rounded=0;orthogonalLoop=1;jettySize=auto;html=1;" edge="1" parent="1" source="C6EwnUrfaHdJioyyNy5x-7" target="C6EwnUrfaHdJioyyNy5x-15">
          <mxGeometry relative="1" as="geometry" />
        </mxCell>
        <mxCell id="C6EwnUrfaHdJioyyNy5x-7" value="item_fs" style="whiteSpace=wrap;html=1;rounded=0;fontColor=#ffffff;strokeColor=#2D7600;fillColor=#60a917;" vertex="1" parent="1">
          <mxGeometry x="500" y="30" width="120" height="40" as="geometry" />
        </mxCell>
        <mxCell id="C6EwnUrfaHdJioyyNy5x-13" value="" style="edgeStyle=orthogonalEdgeStyle;curved=1;rounded=0;orthogonalLoop=1;jettySize=auto;html=1;" edge="1" parent="1" source="C6EwnUrfaHdJioyyNy5x-9" target="C6EwnUrfaHdJioyyNy5x-12">
          <mxGeometry relative="1" as="geometry" />
        </mxCell>
        <mxCell id="C6EwnUrfaHdJioyyNy5x-9" value="user_fs" style="whiteSpace=wrap;html=1;rounded=0;fontColor=#ffffff;strokeColor=#2D7600;fillColor=#60a917;" vertex="1" parent="1">
          <mxGeometry x="500" y="140" width="120" height="34" as="geometry" />
        </mxCell>
        <mxCell id="C6EwnUrfaHdJioyyNy5x-11" value="kafaka" style="shape=datastore;whiteSpace=wrap;html=1;fillColor=#33FFFF;" vertex="1" parent="1">
          <mxGeometry x="820" y="70" width="60" height="60" as="geometry" />
        </mxCell>
        <mxCell id="C6EwnUrfaHdJioyyNy5x-12" value="redis" style="shape=internalStorage;whiteSpace=wrap;html=1;backgroundOutline=1;fillColor=#33FFFF;" vertex="1" parent="1">
          <mxGeometry x="670" y="134.5" width="70" height="45" as="geometry" />
        </mxCell>
        <mxCell id="C6EwnUrfaHdJioyyNy5x-15" value="data" style="shape=note;whiteSpace=wrap;html=1;backgroundOutline=1;darkOpacity=0.05;fillColor=#33FFFF;" vertex="1" parent="1">
          <mxGeometry x="670" y="20" width="60" height="60" as="geometry" />
        </mxCell>
        <mxCell id="C6EwnUrfaHdJioyyNy5x-17" value="rank4.0" style="text;html=1;strokeColor=none;fillColor=none;align=center;verticalAlign=middle;whiteSpace=wrap;rounded=0;" vertex="1" parent="1">
          <mxGeometry x="540" y="120" width="40" height="20" as="geometry" />
        </mxCell>
        <mxCell id="C6EwnUrfaHdJioyyNy5x-18" value="rank2.0" style="text;html=1;strokeColor=none;fillColor=none;align=center;verticalAlign=middle;whiteSpace=wrap;rounded=0;" vertex="1" parent="1">
          <mxGeometry x="545" y="10" width="40" height="20" as="geometry" />
        </mxCell>
        <mxCell id="C6EwnUrfaHdJioyyNy5x-20" value="" style="edgeStyle=elbowEdgeStyle;elbow=horizontal;endArrow=classic;html=1;entryX=0;entryY=0.5;entryDx=0;entryDy=0;entryPerimeter=0;" edge="1" parent="1" source="C6EwnUrfaHdJioyyNy5x-7" target="C6EwnUrfaHdJioyyNy5x-11">
          <mxGeometry width="50" height="50" relative="1" as="geometry">
            <mxPoint x="550" y="270" as="sourcePoint" />
            <mxPoint x="600" y="220" as="targetPoint" />
            <Array as="points">
              <mxPoint x="570" y="100" />
            </Array>
          </mxGeometry>
        </mxCell>
        <mxCell id="C6EwnUrfaHdJioyyNy5x-25" value="" style="edgeStyle=elbowEdgeStyle;elbow=horizontal;endArrow=classic;html=1;entryX=0;entryY=0.5;entryDx=0;entryDy=0;entryPerimeter=0;" edge="1" parent="1">
          <mxGeometry width="50" height="50" relative="1" as="geometry">
            <mxPoint x="575" y="174" as="sourcePoint" />
            <mxPoint x="825" y="204" as="targetPoint" />
            <Array as="points">
              <mxPoint x="575" y="204" />
            </Array>
          </mxGeometry>
        </mxCell>
        <mxCell id="C6EwnUrfaHdJioyyNy5x-26" value="kafaka" style="shape=datastore;whiteSpace=wrap;html=1;fillColor=#33FFFF;" vertex="1" parent="1">
          <mxGeometry x="820" y="174" width="60" height="60" as="geometry" />
        </mxCell>
      </root>
    </mxGraphModel>
  </diagram>
  <diagram id="nfjoR6suYqcXTxupuZQY" name="Page-2">
    <mxGraphModel dx="1422" dy="745" grid="1" gridSize="10" guides="1" tooltips="1" connect="1" arrows="1" fold="1" page="1" pageScale="1" pageWidth="827" pageHeight="1169" math="0" shadow="0">
      <root>
        <mxCell id="WHb-KBfk1RU0HDK-0ULZ-0" />
        <mxCell id="WHb-KBfk1RU0HDK-0ULZ-1" parent="WHb-KBfk1RU0HDK-0ULZ-0" />
      </root>
    </mxGraphModel>
  </diagram>
</mxfile>
